<?xml version='1.0' encoding='utf-8'?>
<svg xmlns="http://www.w3.org/2000/svg" version="1.1" id="Layer_1" x="0px" y="0px" viewBox="0 0 2000 1500" style="enable-background:new 0 0 2000 1500;"> <g> <path d="M1831.7,911.6c3,0.3,6.6-0.4,8.7,1.1c10.7,7.6,21,15.7,31.4,23.6c1.8,1.4,3.2,3.3,5.1,4.3c19.8,9.9,39.6,19.7,59.4,29.6 c12.2,6.2,27,9.7,29.5,27.2c-10.7,13.7-24.3,18.4-41.2,17.4c-35.7-2.2-71.4-3.8-107.1-5.1c-66.3-2.4-132.5-4.6-198.8-6.6 c-34.9-1-69.8-1-104.7-2.3c-54.3-2.1-108.6-5-162.9-7.4c-15.7-0.7-31.4-0.6-47-1.1c-48.4-1.6-96.8-3.3-145.1-4.9 c-7.4-0.2-14.8,0-22.9,0c-1.8,7.7-3.3,14-5.3,22.5c-5.5,1.3-11.8,4.3-18,4.1c-23-0.7-46.1-2.6-69.1-3.9c-30.5-1.6-61-4-91.5-4.4 c-26.8-0.3-53.6,1.6-79.6-7.6c-6.7-2.4-14.7-1.4-23.1-2.1c0-6.1,0-12.3,0-19.1c-12.4-4.6-24.2-2.2-35.8-0.9 c-11.1,1.2-22.1,3.6-33.2,3.6c-57.4,0.1-114.7,0.1-172.1-0.9c-44.7-0.8-89.4-3-134-4.8c-31.3-1.3-62.5-3.1-93.8-4.2 c-49.1-1.7-98.3-2.9-147.4-4.7c-15.6-0.6-31.1-2.8-46.7-3.1c-30.6-0.7-61.2-0.6-91.8-0.8c-17.2-0.1-34.2-0.8-49-11.7 c-3.2-2.4-8.4-2.1-12.6-3c-5.4-10.4,0-15,8.2-19.4c30-16.3,60-32.6,89.5-49.9c6.6-3.9,10.9-11.7,19-20.8 c45-5.7,93.3-11.1,142.7-8.3c48.9,2.8,98,1.5,148.1,2c-3.8-1.7-7.1-4.1-10.6-4.5c-7.4-0.8-14.9-0.6-22.4-0.8 c-59.5-1.7-119.1-3.7-178.6-4.8c-16.3-0.3-32.6,2.2-48.9,3.5c-7.2,0.6-14.8,2.1-19.4-10.2c8.6-0.7,15.6-1.9,22.6-1.9 c53-0.1,106-0.9,159,0.4c39.4,1,78.7,5.2,118,7.8c28.3,1.9,56.5,4.5,84.8,5.1c30,0.6,59,6.7,88.3,12c38.8,7,77.7,13,116.6,19.1 c5.6,0.9,11.5,0.1,17.4-2.3c-42-8.6-83.9-18.6-126.2-25.5c-34.4-5.7-69.4-8.8-104.2-11.4c-38.6-2.9-77.4-3.5-116.1-5.8 c-37.7-2.2-75.3-6.2-113-7.9c-38.7-1.8-77.5-2.3-116.1,3.4c-13.7,2-14.2,1.2-21.2-11.8c8.3-0.4,15.5-1.1,22.7-1 c44.8,0.1,89.6-0.5,134.4,1c43.1,1.5,86.1,5.5,129.1,7.9c15.5,0.8,31,0.1,49.8,0.1c-13.3-8.8-25-8.4-36.6-9.2 c-37.1-2.5-74.2-6.3-111.3-8c-35-1.6-70.2-1.2-105.2-1.3c-17.2,0-34.3,0.9-51.5,1.1c-7.3,0.1-15,1.2-21.5-6.7 c13.3-10.4,28.5-6.1,42.6-6.7c14-0.6,28-0.1,42-2.9c-19.1-1.7-38.2-3.2-57.3-5.1c-3.5-0.4-6.7-2.5-13-4.9c13.2-14,25-26.6,39.5-42 c0,2.6-0.1,0.5,0-1.5c0.1-2.2,0.4-4.3,0.8-8.5c6.4-2.1,13.2-5.8,20.2-6.3c25.9-2.1,52-4.5,77.9-4.3c19.2,0.1,38.3,3.9,57.5,6 c5.9,0.6,11.9,1.5,17.8,1.5c51.6-0.1,102.4,7.6,153.1,15.7c46.3,7.4,92.3,16.5,138.3,25.2c42.6,8,83.4,22.4,123.5,38.4 c13.7,5.5,26.3,14,39.1,21.7c18.5,11,36.6,22.7,55.1,33.6c3.2,1.9,7.7,1.3,16.6,2.7c-15.9-18.3-31.5-29.3-47.9-38.1 c-29.4-15.9-59.8-29.8-89.9-44.5c-2-1-4.3-1.4-6.4-1.9c-29.5-7.2-59-14.7-88.6-21.6c-28.2-6.6-56.5-12.9-84.9-18.8 C564.7,725,512.6,717,459.7,713.7c-34.8-2.2-69.5-7.3-104.2-11c-5.1-0.5-10.3-0.8-15.4-0.5c-8.9,0.7-17.7,2-26.5,2.9 c-14,1.4-28,3.1-42.1,4.1c-8.8,0.6-17.6,0.1-27.8,0.1c-0.6-5.7-1.1-10.5-1.4-13.7c14.4-10.8,29.5-18.6,39.7-30.6 c15.6-18.5,35.5-27.8,56.6-37.6c26.1-12.1,51.3-26.4,70.3-49.7c7.3-8.9,18.8-14.4,28.6-21.1c18.9-13.1,39.7-23.6,54.9-41.6 c6.2-7.4,11.8-15.3,18.4-22.3c12.5-13.2,27.5-18.6,46.2-16.5c25.9,2.9,52,3.8,78,5.1c7.4,0.4,14.8-1.1,22.2-1.4 c8.1-0.3,16.2-0.3,24.3-0.2c3.7,0.1,7.6,2.1,11,1.4c29-6.1,55.4,6.9,82.9,11c10.9,1.6,21.4,5.7,32.2,8.6 c53.5,14.3,103.6,36.8,152.4,62.5c5.1,2.7,9.3,7.5,13.4,11.7c7.8,8,15.2,16.4,23.7,25.7c11.6-6.4,23.2-10.4,31.8-17.8 c36.7-31.4,81-45.7,126.2-58.5c32.2-9.1,64.1-19.7,97.9-22c8-0.5,16-0.7,23.8-1.7c13.1-1.9,26.2-4.7,39.3-5.4 c25.8-1.4,51.7-3,77.5,2c4.8,0.9,10.2-1.5,15.4-1.5c36.4-0.2,72.9-0.1,110.1-0.1c32.2,21.9,61.6,47.5,86.6,78.5 c21.9,27.2,45.8,52.7,68.2,79.3c8.1,9.7,14.2,21,22.1,30.9c14.3,17.9,26.9,37.4,46.4,50.7c9.1,6.3,9.2,8.5,8.2,25.3 c-1.2,0.9-2.4,2.4-3.6,2.4c-54,2.5-108,7.5-162.1,5.1c-20.7-0.9-41.3-3-62-2.8c-58.1,0.5-116.3,2.4-174.4,3 c-55.3,0.6-109.7,8.1-164.2,16.2c-43.7,6.5-86.2,16.7-128.2,30c-16.4,5.2-31.8,12.5-44.2,30.1c6.7-1,10.9-0.8,14.3-2.4 c47-22.3,97.3-32.9,148.1-41.1c55.9-9.1,112.4-11.6,168.9-15.2c102.9-6.7,205.9-0.5,308.8-3.4c29.8-0.8,59.5-2.2,89.3-3.8 c18.2-0.9,23.1,0.8,31.8,14.5c-3,0.8-5.7,2.4-8.2,2.1c-12.5-1.6-24.9-0.9-37.4-0.8c-111,0.9-222,0.1-333,0.9 c-35,0.2-69.9,4.2-104.9,5c-47.9,1.1-94.8,8.3-141.6,17.3c-10.9,2.1-22.3,2.4-33,5.2c-16.5,4.3-32.6,10-48.9,15.1 c-18.5,5.8-36.9,12-52.6,27.6c-0.3,5.8-0.8,13-1.3,21.7c22.1-21.5,48.6-31,75.6-36.9c43.5-9.4,87.6-16.8,131.7-23.3 c40.5-5.9,81.2-11.5,122-13.4c69.2-3.2,138.6-3.2,207.9-4.8c59.6-1.4,119.3-3,178.9-4.9c11.9-0.4,23.7-2.4,35.5-3.5 c10.5-0.9,18.3,1.2,22.2,13.2c1.7,5.2,9,8.6,15,13.8c-0.6,6.9-1.2,14.8-2,24.7c-9,0.2-16.3,1.3-23.4,0.5 c-49.9-5.2-99.7-3.7-149.5-0.1c-50.5,3.6-101.1,6.5-151.6,9.6c-52.8,3.2-105.5,6.4-158.3,9.7c-2.5,0.2-4.9,1.8-7,4.2 c33.4-0.4,66.7,4.3,99.6-3c4.3-1,8.9-0.4,13.4-0.4c52.3-0.4,104.6,0.2,156.8-1.4c55-1.6,110-5.4,165-8.1c20-1,39.9-1.5,62.1-2.3 c6,18,11.2,37.6,26.6,51.5c-6.5,1-13,3.1-19.5,2.9c-16.3-0.6-32.6-2.1-48.9-3.3c-8.2-0.6-16.4-0.7-24.5-1.6 c-26.5-3-52.8-9.6-79.7-3.4c-5,1.1-10.4,0.4-15.6,0.6c-49.8,1.4-99.6,2.8-149.4,4.4c-1.9,0.1-3.8,1.5-9.4,3.8 c8.8,0.6,13.8,1.4,18.7,1.3c101.8-1.7,203.5-1,304.9,8.4c4.4,0.4,9,0.4,13.3-0.4C1829.1,923.3,1832.1,918.5,1831.7,911.6z M1236,929.6c28.9-1.2,57.8-2.4,86.7-3.6c42.2-1.8,84.5-3.7,126.7-5.5c8.8-0.4,17.4-1.3,27.9-8.1c-31.8,0-60-1-88.1,0.3 c-38.4,1.8-76.8,4.8-115.1,8.3c-12.8,1.2-25.2,5.9-37.8,8.9c-12.3,0-24.5,0-36.8,0C1211.8,932.9,1224.4,938,1236,929.6z M994.4,719.5l-0.4-0.4c1.4,3,2.9,6,4.4,9.1c15.7-0.8,20.6-22.9,41.4-15.4c-17,11.5-32,21.5-49.6,33.5 c-6.7,21.6-15.5,46.3-17.8,74.2c7.8-9.5,14.2-17.3,19.4-23.7c1.5-7.3,2.6-13.3,3.9-19.2c1.4-6.4,3.1-12.7,4.7-19.3 c36.9-29,42.2-32.1,57.7-31.3c-9.6,7.6-17.7,14.1-26.5,21.1c10.7,3.4,17.1-11.6,28.3-1.4c-11.6,6.1-22.4,12.4-33.7,17.6 c-7.2,3.3-12.3,6.9-12.6,16.3c22.4-2.4,32.4-27.8,60.1-26c-20.2,14.7-36.8,26.8-55.8,40.7c22.3-1.3,33.7-23.3,56.4-20.6 c-8.7,11.9-21,14.4-30.8,20.8c-24.1,15.6-52.4,26-65.6,53.2c-7.2,2.9-13.2,5.2-21.8,8.7c5,4.1,7.7,7.8,11.2,8.7 c3,0.8,7.4-0.7,10.3-2.6c2.9-1.9,4.8-5.5,7-8.5c18.8-26,41.1-47,73.6-54.4c37.7-8.6,75.3-17.8,113.2-25.9 c46.4-9.9,93.4-16.7,140.7-18.2c52.1-1.7,104.3,1.5,156.5,2.5c10.4,0.2,21.3,2.1,31.2-0.3c26.7-6.4,54.3-7,80-1.8 c27.9,5.7,54.5-3.3,82.1,0.7c21.2,3.1,43.6-2.7,66.1-4.5c3.1-7.4-1.7-11.7-6.4-16.9c-14-15.4-27.7-31.1-40.9-47.1 c-10.4-12.6-19.4-26.4-30-38.9c-19.6-23.2-41.4-44.8-59.5-69.1c-12.1-16.3-25.2-31.2-39.1-45.7c-13.5-14-29.5-21.6-49.2-21.5 c-39.6,0-79.2,1-118.6-1c-62.3-3.2-123.7,3.3-184.4,15.4c-61,12.2-117.8,36.8-172,67.2c-1.3,0.7-2.3,1.9-4.1,3.4 c-1.6,4.1-3.4,8.9-3.8,9.9c-5.5,9.3-22.2,5.6-13.9,22c7.1-4.3,13.5-7.9,19.5-11.9c6.2-4.1,11.2-10.6,23.7-9.5 c-10.8,8.9-18.9,15.3-26.6,22.3c-2.5,2.3-3.6,6.2-7.6,13.6c19.1-9.1,28.5-27.4,51.4-22.6c-17.6,11.8-32.8,21.9-48,32.1 c-4.1,6.6-8.2,13.3-13.4,21.6c-16.7-15.3-17.3-31-11.1-48.3c-22.7-27.8-43.3-57.1-79.4-69.5c-20.4-7-40-16.4-60.3-23.6 c-22.4-7.8-46.5-11.9-67.7-22.1c-18.6-9-38.1-11.2-56.9-17.2c-25.2-8.1-50.2-2.7-74.8-2.6c-28.3,0.1-56.2-3.4-84.3-3.8 c-13.2-0.2-26.5-2.3-35.3-3.1c-14.8,13.5-26.3,24.1-37.8,34.7c-8.1,7.4-16.1,14.9-24.4,22.1c-4.5,3.9-9.6,6.9-14.1,10.7 c-19.1,16.3-40,30.1-58.5,47.4c-21.2,19.8-47.6,32.6-74.9,43.7c-21.2,8.6-35.3,26.1-48.6,47.5c13,0,23.3-0.1,33.6,0 c26.7,0.4,53.5,0,80.1,1.5c27.4,1.6,54.8,4.6,82.2,7.7c42.9,4.8,86.1,7.6,128.3,15.8c64.2,12.5,128.1,27.3,191.2,44.3 c39.4,10.6,77.7,25.8,111,51.1c13.5,10.2,28.3,18.6,42.5,27.8c2.4-1.9,5.2-3,5.7-4.7c10-32.7,19.8-65.4,29.4-98.2 C983.4,729.3,983,720.1,994.4,719.5z M1132.4,937.4c0.6-1.6,1.3-3.2,1.9-4.9c23.3-3.7,46.5-8,69.9-10.9 c32.4-4.1,64.9-7.6,97.5-10.4c36.3-3.2,72.6-7.9,108.9-7.3c32,0.5,63.4-5.6,95.6-2.5c23.4,2.3,47.5-1.7,71.3-3.2 c3.8-0.2,7.4-1.9,11.1-3c-5.3-4-10.2-5.1-15-4.9c-23.6,1-47.3,2.5-70.9,3.3c-52.1,1.9-104.2,3.5-156.3,5.2 c-2.2,0.1-4.5,0.2-6.7,0.4c-33.9,4-67.8,8.2-101.7,12c-29.5,3.3-59.1,6.1-88.7,9.1c-12.6,1.3-22.8,6.3-28.9,18 c0.4,5.1,0.7,9.9,1.2,16c-11.2,0.4-21.8-2.9-30.1,5.9c-14.4,15.3-33.2,18.1-53.2,18c-45.5-0.1-91,1.5-135.7-9.4 c-4.4-1.1-9.5,1.1-14.7,1.8c0,6,0,10.2,0,15.6c70,2.2,139,4.5,208.1,6.5c3.2,0.1,6.5-1.9,11.2-3.4c-5.2-7.8-9.3-14.1-15.9-24.1 c18.7,0.8,33.1-8,48.5-2.8c20.6,7,41.1,10,63.1,10c42.4-0.1,84.8,3.8,127.2,5.6c43.1,1.9,86.3,4.7,129.5,4.7 c67.2-0.1,133.9,6.7,200.9,9.7c23,1,46.2,4.7,69,2.7c53.7-4.5,107.1-4.1,160.6,1.1c9.6,0.9,19.4,1.2,29,0.4 c4.1-0.4,7.9-4.4,13.5-7.8c-10.9-8.1-21-5.1-30.1-5.5c-40.1-1.7-80.3-2.8-120.5-3.9c-55.9-1.6-111.8-2-167.6-4.8 c-62.5-3.1-125.1,3.2-187.6-4.9c-30.9-4-62.4-3.4-93.7-4.5c-41.7-1.5-83.4-4.1-125-3c-16.6,0.4-32.2-0.7-47-3.3 C1150.6,951.3,1141.5,944.3,1132.4,937.4z M68,932.7c11.9,2.6,20.2,5.7,28.6,6c43.9,1.4,87.9,2.1,131.8,4.4 c62.4,3.2,125.1,0.8,187.5,7.2c30.8,3.2,62,2.6,93,4c40.1,1.8,80.3,4.9,120.4,5.6c33.4,0.6,66.7-1.7,100.1-2.3 c23-0.4,46-0.1,68.9-0.4c3.6-0.1,7.2-2.2,12.1-3.7c-3.1-2.6-4.1-4.1-5.3-4.2c-3.7-0.5-7.4-0.7-11.2-0.7 c-37.2-0.3-74.2-1.9-111.6,2.4c-52.7,6-105.6-3.5-158.4-5.5c-1.5-0.1-2.9-0.8-4.4-1c-36.9-4.9-73.8-10.3-112-1.1 c-16.4-8.4-34.8-10.3-53.7-9.7c-12.6,0.4-25.5,1.3-37.7-1c-23.1-4.4-45.9-2.3-68.8,0.1c-10.3,1.1-20.9,1-31.3,0.5 c-21.6-1-43.1-3.6-64.6-3.6c-18.3,0-35.7-0.5-49.5-14.2C90.8,918.7,79.1,918.4,68,932.7z M1780.7,839c0.1-1.8,0.3-3.6,0.4-5.3 c-3.2-0.9-6.5-2.7-9.7-2.6c-78.2,1.2-156.5,2.2-234.7,3.9c-33.5,0.7-67,2.6-100.5,4.5c-50.5,2.8-101.1,5.2-151.6,9.3 c-42.2,3.5-84.3,9-126.4,14c-3.5,0.4-6.6,3.7-14.1,8.1c12.4,0,19.8,0.4,27.1-0.1c44.4-3.2,88.7-6.7,133-9.8 c55.7-4,111.4-7.9,167-11.5c15.5-1,31-0.6,46.5-1.5c37.1-2.3,74.2-6,111.3-7.2c43.2-1.4,86.6-0.6,129.8-0.8 C1766.2,839.9,1773.5,839.3,1780.7,839z M810.2,818c-3.7-3.4-5-5.1-6.6-5.8c-6.8-3-13.6-6.2-20.6-8.5 c-55.1-18.6-111.2-32.4-168.8-41c-52.7-7.8-104.5-21.7-158.1-24.7c-35.6-2-71.1-6.9-106.7-8.1c-30.4-1-60.8,1.4-91.3,2.4 c-2.9,0.1-6.3,0.3-8.7,1.8c-3.1,1.9-5.4,5.1-10.5,10.1c8.8,0.8,14,2.2,18.8,1.5c28.2-4.6,56.3-2.5,84.5-0.3 c38.6,3,77.4,3.2,116,6.4c31.8,2.7,63.5,7.4,95,12.4c32.3,5.1,64.2,12.4,96.5,17.3c35.4,5.4,69.9,14.1,104.1,24.3 C771.3,810.8,788.8,817,810.2,818z M289.4,787.6c0,0.8,0,1.7,0.1,2.5c5.8,0.4,11.5,1,17.3,1.3c33.3,1.7,66.7,2.6,100,5.3 c40,3.3,79.8,8,119.8,12.2c32.5,3.4,65.3,5.3,97.5,10.9c56.3,9.8,113.2,17.3,167.9,34.8c33.9,10.9,69.7,15.7,102.2,31.4 c5.1,2.5,12.1,0.8,23.4,1.3c-6.4-4.9-8.3-7.1-10.7-8c-15.9-6.2-31.8-12.4-48-17.9c-43-14.6-86.7-26.1-131.8-32.5 c-39.7-5.6-79.1-13.4-118.3-21.8c-55.5-12-111.9-15.7-168.1-19.5c-46-3.1-92.4-1.4-138.7-1.6C297.7,786,293.6,787.1,289.4,787.6z M729.6,917.6c0.3-1.6,0.6-3.2,0.9-4.8c-10.3-0.7-20.7-1.1-31-2.1c-42.1-4.1-84.1-9.5-126.3-12.3c-40.8-2.7-81.8-3.3-122.7-3.7 c-22.2-0.2-44.4,2.4-66.7,3c-24.6,0.7-49.2,0.4-73.8,0.8c-7.7,0.1-15.9-0.1-24.2,9.4c42.8,2.7,82.7,6.7,122.6,7.4 c67.8,1.2,135.7,0.3,203.5,0.1c11.1,0,22.1-1.3,33.2-1C673.3,915.2,701.4,916.5,729.6,917.6z M237.9,769.5c0.2,1.8,0.4,3.6,0.6,5.5 c53.9,0.6,107.8,2,161.7,1.6c55.2-0.5,110.1,4.5,164.5,11.7c52.9,7,105.2,18.1,157.8,27.4c-5.6-6.1-12.1-9.9-19-11.5 c-141.3-32.9-284.2-48.2-429.3-39.5C262.1,765.4,250,767.9,237.9,769.5z M523.1,885.5c0.4-1.3,0.8-2.5,1.1-3.8 c-34.1-1.7-68.2-4.1-102.4-4.9c-16.3-0.4-32.6,2.4-48.9,2.8c-25.3,0.6-50.7-0.3-76.1,0.4c-30.5,0.9-60.9,3-91.4,4.1 c-17.7,0.6-35.4,0.1-55.3,0.1c-3.8,2.8-9.5,7-19.5,14.3c11,0,16.8,0.3,22.6-0.1c40.8-2.8,81.5-6.4,122.4-8.4 c47.5-2.3,95-3.5,142.5-4.5C453.2,884.9,488.2,885.5,523.1,885.5z M1082.7,902.4c18.5-2.5,36.1-4.9,53.8-7.1 c17.7-2.2,35.4-4.3,53.1-6.1c18.5-1.9,37.5-1.1,55.3-5.5c16.9-4.1,35.4,2.2,51-9.4c-7.8-1.7-15.5-2.1-23.2-1.6 c-13.3,0.8-26.6,1.9-39.9,3.2c-27.3,2.5-54.6,5.2-81.9,7.9c-17,1.6-33.9,3.3-50.9,4.9c-2.2,0.2-5.2,0.8-6.6-0.4 c-12.9-11.3-30.4-4.6-44.1-12.8c-4,3.1-7.2,5.7-13.3,10.5c8.6,0,13.3,0,17.6,0c2.9,3.1,5.3,5.8,7.3,7.9c5.5-0.7,9.8-1.2,13.6-1.7 C1077.6,896.1,1080.3,899.4,1082.7,902.4z M821.2,908c-35.3-11.4-195.1-25.4-218.4-20c0.8,1.2,1.5,3.3,2.4,3.4 c68.7,6.8,137.4,13.4,206.1,19.8C813.3,911.4,815.5,910,821.2,908z M1104.7,929.4c1.6,1.3,3.2,2.5,4.8,3.8 c8.6-19.6,25-20.6,41.5-22.3c19.9-2.1,39.5-5.8,59.4-8c31.6-3.5,63.2-6.4,94.8-9.5c2.8-0.3,5.7-0.7,8.5-1.1 c-70.8-4.8-140,6.2-209.6,17.7c-1.1,4.8-2.4,8.3-2.4,11.8C1101.7,924.3,1103.6,926.8,1104.7,929.4z M1430.2,825.2 c-79.2-2.6-157.5,4.7-235.4,17.7c3.6,1.4,7.3,1.7,10.8,1.4c28.7-2.6,57.4-5.7,86.1-7.9c43.6-3.4,87.2-6.2,130.8-9.3 C1425.1,826.8,1427.6,825.8,1430.2,825.2z M1905.1,969.7c-15-8.9-24.8-15.6-35.3-20.7c-10.6-5.1-17.1-18.6-31.4-17.1 c-3.9,11.8,7.4,12,11.2,17.5c4.5,6.6,9.1,13.1,14.9,21.4c7.4,0,16.3,0.1,25.2,0C1893.2,970.7,1896.8,970.3,1905.1,969.7z M1303.7,941c-50.5-3.8-101.1,0.7-119.8,10.6C1225.6,955.9,1264.5,945.4,1303.7,941z M1621.3,926.5c-33.1,0-66.1-0.1-99.2,0.2 c-3.1,0-6.3,3.3-9.4,5C1549.8,932.3,1586.3,938.1,1621.3,926.5z M1377.3,943.2c25.4-1.6,50.8-3,76.2-5.1c4.7-0.4,9.1-3.4,15.9-6.1 C1446.5,928.2,1392.3,932.6,1377.3,943.2z M280.6,871.5c15.4,0,30.8,0.7,46.1-0.2c14.3-0.9,29.5,4.1,47.8-6.2 C339.5,860.4,310,865,280.6,871.5z M1802.3,875.7c-23.9-8-66.8-5.1-80,5c24.8,0,48.5,0.1,72.1-0.1 C1796.1,880.5,1797.9,878.5,1802.3,875.7z M264.3,870.3c-32.2-2.4-64.5-6-96.2,1.1c0.1,1.6,0.1,3.1,0.2,4.7 C200.3,874.1,232.3,872.2,264.3,870.3z M861.2,934.7c-4,13.2,1.9,21.6,6.8,31.4c6-0.6,11.6-1.2,17.7-1.8c0-4.8,0-8.2,0-9.7 C877.2,947.7,870.3,942.1,861.2,934.7z M510.1,818.4c13.3,8.9,45.3,12,64.8,6.1C551.6,822.3,532.2,820.5,510.1,818.4z M1087,863.6 c0.5,1.5,1,3,1.5,4.5c18.1-3.9,36.3-7.8,54.4-11.7C1123.1,852.3,1105.1,858.3,1087,863.6z M1681.2,932.6c-13.3-1.5-26.4-10.6-40,0 C1654.5,932.6,1667.8,932.6,1681.2,932.6z M1671.3,893.1c-34.1-4.9-34.4-4.9-46.4,3.6C1640.4,895.5,1655.9,894.3,1671.3,893.1z M836.2,895.9c12.1,9,21.4,8.6,31,7.1C859.3,897.1,851.1,892.1,836.2,895.9z M1741.5,816.3c8.6-3.2,16.9,10.4,28.1,0.8 C1759.5,810.6,1750.6,813.3,1741.5,816.3z M1788.5,897.4c0-0.8,0-1.6,0-2.3c-9.7,0-19.5,0-29.2,0c0,0.8,0,1.6,0,2.3 C1769,897.4,1778.7,897.4,1788.5,897.4z M1357.7,941.4c0-0.4-0.1-0.7-0.1-1.1c-9.2,0-18.4,0-27.5,0c0.1,0.4,0.1,0.7,0.2,1.1 C1339.3,941.4,1348.5,941.4,1357.7,941.4z M747.5,859.1c0.5-1.5,1-3.1,1.5-4.6c-8.3-1.5-16.6-3.1-25-4.6c-0.2,1.2-0.5,2.4-0.7,3.5 C731.3,855.3,739.4,857.2,747.5,859.1z M949,902.8c-7.1,0.9-11.8,1.6-20.1,2.7C938.6,913.3,943.1,911.8,949,902.8z M1687.9,876.8 c0.2,1.2,0.3,2.4,0.5,3.6c5.2-0.3,10.3-0.6,15.5-0.9c0-0.9,0-1.8-0.1-2.7C1698.5,876.8,1693.2,876.8,1687.9,876.8z"/> <path d="M994.4,719.5c2.4-6.1,4.9-12.1,7.8-19.5c-1.6-2.4-3.9-6.1-6.9-10.8c8.6-6.3,17.3-12.7,25.9-19.1c0.9,0.7,1.9,1.3,2.8,2 c-2.8,5-5.5,10-10,18.1c11.2-2.3,19.3-3.9,31.2-6.4c-8.1,13.1-19.9,12.8-27.6,18.8c-7.6,5.9-15.8,11-23.7,16.4L994.4,719.5z"/> <path d="M1051.4,662.4c-4.3,6.8-8.9,8.7-17.3,3.6C1039.7,661.2,1043.2,655.4,1051.4,662.4z"/> </g> </svg>